HIERARCHY
ROOT Hips
{
	OFFSET -0.001795 -0.223333 0.028219
	CHANNELS 6 Xposition Yposition Zposition Zrotation Yrotation Xrotation 
	JOINT LeftUpLeg
	{
		OFFSET 0.069520 -0.091406 -0.006815
		CHANNELS 3 Zrotation Yrotation Xrotation
		JOINT LeftLeg
		{
			OFFSET 0.034277 -0.375199 -0.004496
			CHANNELS 3 Zrotation Yrotation Xrotation
			JOINT LeftFoot
			{
				OFFSET -0.013596 -0.397961 -0.043693
				CHANNELS 3 Zrotation Yrotation Xrotation
				JOINT LeftToe
				{
					OFFSET 0.026358 -0.055791 0.119288
					CHANNELS 3 Zrotation Yrotation Xrotation
					End Site
					{
						OFFSET 0.000000 0.000000 0.000000
					}
				}
			}
		}
	}
	JOINT RightUpLeg
	{
		OFFSET -0.067670 -0.090522 -0.004320
		CHANNELS 3 Zrotation Yrotation Xrotation
		JOINT RightLeg
		{
			OFFSET -0.038290 -0.382569 -0.008850
			CHANNELS 3 Zrotation Yrotation Xrotation
			JOINT RightFoot
			{
				OFFSET 0.015774 -0.398415 -0.042312
				CHANNELS 3 Zrotation Yrotation Xrotation
				JOINT RightToe
				{
					OFFSET -0.025372 -0.048144 0.123348
					CHANNELS 3 Zrotation Yrotation Xrotation
					End Site
					{
						OFFSET 0.000000 0.000000 0.000000
					}
				}
			}
		}
	}
	JOINT Spine
	{
		OFFSET -0.002533 0.108963 -0.026696
		CHANNELS 3 Zrotation Yrotation Xrotation
		JOINT Spine1
		{
			OFFSET 0.005487 0.135180 0.001092
			CHANNELS 3 Zrotation Yrotation Xrotation
			JOINT Spine2
			{
				OFFSET 0.001457 0.052922 0.025425
				CHANNELS 3 Zrotation Yrotation Xrotation
				JOINT Neck
				{
					OFFSET -0.002778 0.213870 -0.042857
					CHANNELS 3 Zrotation Yrotation Xrotation
					JOINT Head
					{
						OFFSET 0.005152 0.064970 0.051349
						CHANNELS 3 Zrotation Yrotation Xrotation
						End Site
						{
							OFFSET 0.000000 0.000000 0.000000
						}
					}
				}
				JOINT LeftShoulder
				{
					OFFSET 0.078845 0.121749 -0.034090
					CHANNELS 3 Zrotation Yrotation Xrotation
					JOINT LeftArm
					{
						OFFSET 0.090977 0.030469 -0.008868
						CHANNELS 3 Zrotation Yrotation Xrotation
						JOINT LeftForeArm
						{
							OFFSET 0.259612 -0.012772 -0.027456
							CHANNELS 3 Zrotation Yrotation Xrotation
							JOINT LeftHand
							{
								OFFSET 0.249234 0.008986 -0.001171
								CHANNELS 3 Zrotation Yrotation Xrotation
								End Site
								{
									OFFSET 0.000000 0.000000 0.000000
								}
							}
						}
					}
				}
				JOINT RightShoulder
				{
					OFFSET -0.081759 0.118833 -0.038615
					CHANNELS 3 Zrotation Yrotation Xrotation
					JOINT RightArm
					{
						OFFSET -0.096012 0.032551 -0.009143
						CHANNELS 3 Zrotation Yrotation Xrotation
						JOINT RightForeArm
						{
							OFFSET -0.253742 -0.013329 -0.021401
							CHANNELS 3 Zrotation Yrotation Xrotation
							JOINT RightHand
							{
								OFFSET -0.255298 0.007772 -0.005559
								CHANNELS 3 Zrotation Yrotation Xrotation
								End Site
								{
									OFFSET 0.000000 0.000000 0.000000
								}
							}
						}
					}
				}
			}
		}
	}
}
MOTION
Frames: 12
Frame Time: 0.050000
0.000000 0.945669 0.000000 -1.056408 -3.984306 0.921127 -1.210353 0.388256 3.562240 -0.446203 0.192853 -4.625797 -1.458644 -1.166201 4.354058 0.000000 0.000000 0.000000 0.970518 -0.159437 1.213668 -0.120235 -0.039667 -1.251818 2.903146 3.671978 5.420233 0.000000 0.000000 0.000000 5.360584 0.149573 -2.260226 -2.229717 1.068727 -0.160058 -2.569317 4.453745 6.380728 7.717409 -3.242403 -16.409857 0.000000 0.000000 0.000000 -26.006668 -4.484739 -0.814507 -47.573814 -3.299124 -4.223610 -2.712331 -23.424376 1.348619 0.000000 0.000000 0.000000 22.967103 -1.578540 -2.190776 55.147593 1.814728 -4.888972 3.148341 25.149524 1.677481 0.000000 0.000000 0.000000 
0.000155 0.944529 0.000519 -1.456504 -4.975372 1.460114 -0.033129 0.358241 3.700996 -1.786245 0.325605 -5.835782 -0.936066 -0.303174 4.069410 0.000000 0.000000 0.000000 0.951744 -0.051332 0.158918 0.307981 -0.049140 -0.525868 2.888703 3.871119 4.935135 0.000000 0.000000 0.000000 5.914802 0.215975 -2.947781 -2.146914 1.038549 0.640636 -3.809575 5.937270 5.603327 9.521611 -4.055371 -17.183914 0.000000 0.000000 0.000000 -26.099058 -5.002310 -1.009998 -47.227836 -2.601576 -4.240992 -2.215875 -24.619562 1.236492 0.000000 0.000000 0.000000 23.216549 -2.720494 -2.527099 55.996421 0.942288 -5.353463 3.828335 26.334521 1.991613 0.000000 0.000000 0.000000 
0.000206 0.943993 0.000917 -1.371284 -5.075145 1.692479 0.103363 0.296801 3.125172 -2.082407 0.333832 -5.172089 -0.819258 -0.297269 3.512900 0.000000 0.000000 0.000000 1.064966 -0.039440 -0.002534 -0.233908 0.002636 -0.464067 3.212471 4.757161 4.712046 0.000000 0.000000 0.000000 6.260139 0.226723 -3.039554 -2.781867 1.328738 -0.307140 -3.735239 5.435857 6.111318 8.316724 -3.459637 -16.847173 0.000000 0.000000 0.000000 -24.827083 -4.877675 -0.688867 -47.929917 -2.989309 -4.310470 -2.048061 -23.299511 1.174727 0.000000 0.000000 0.000000 23.293610 -1.721584 -2.120507 55.365523 0.254672 -5.616635 5.252786 26.022609 2.222061 0.000000 0.000000 0.000000 
0.000237 0.943897 0.001550 -1.435764 -5.230101 1.615564 0.536155 0.342705 3.766168 -2.861752 0.406347 -6.157500 -1.124449 -0.656795 4.149936 0.000000 0.000000 0.000000 0.707199 -0.025794 -0.011261 0.355285 -0.051337 -0.476193 3.495927 5.388501 4.738583 0.000000 0.000000 0.000000 6.042269 0.246925 -3.260875 -2.411067 1.156529 -0.026238 -3.966139 5.707380 5.818342 8.643213 -3.619120 -16.866062 0.000000 0.000000 0.000000 -25.235839 -4.549647 -1.040810 -47.874471 -2.677438 -4.358443 -1.690900 -23.409555 1.089631 0.000000 0.000000 0.000000 23.266086 -2.066368 -2.246970 55.192571 -0.022782 -5.716184 5.948466 26.444992 2.432308 0.000000 0.000000 0.000000 
0.000253 0.944291 0.002283 -1.472363 -5.362015 1.548528 0.488249 0.325460 3.556277 -2.630510 0.389081 -5.985332 -0.890676 -0.172523 4.225139 0.000000 0.000000 0.000000 0.600626 -0.049715 0.263179 0.461453 -0.074008 -0.842605 3.769158 6.073399 4.654641 0.000000 0.000000 0.000000 5.873658 0.232449 -3.125908 -2.433838 1.176187 0.461985 -3.958986 5.638005 5.117699 8.448489 -3.660659 -15.901674 0.000000 0.000000 0.000000 -25.207309 -4.575740 -1.018090 -47.740158 -2.533539 -4.347679 -1.968208 -23.040705 1.125051 0.000000 0.000000 0.000000 23.031521 -2.015036 -2.252690 55.098438 -0.220824 -5.715821 6.505970 26.200971 2.508172 0.000000 0.000000 0.000000 
0.000279 0.944335 0.003395 -1.569598 -5.316423 1.458437 0.592083 0.358487 3.949837 -2.839320 0.407273 -6.284694 -1.006643 -0.394985 4.231513 0.000000 0.000000 0.000000 0.503784 -0.062471 0.430083 0.719534 -0.096937 -0.856560 4.041014 6.664212 4.723663 0.000000 0.000000 0.000000 5.772075 0.231961 -3.124583 -2.282413 1.100095 0.297719 -3.937995 5.271919 5.328255 8.074522 -3.523004 -15.594889 0.000000 0.000000 0.000000 -25.413917 -4.229286 -1.115502 -47.694029 -2.501895 -4.406362 -2.067879 -23.115142 1.167062 0.000000 0.000000 0.000000 22.930698 -1.773354 -2.200906 54.975335 -0.324156 -5.749330 6.782652 26.149460 2.543088 0.000000 0.000000 0.000000 
0.000289 0.944367 0.004694 -1.649333 -5.364126 1.329989 0.663896 0.368509 4.082299 -2.789085 0.404314 -6.281767 -0.946049 -0.208703 4.407283 0.000000 0.000000 0.000000 0.521976 -0.082745 0.628176 0.603633 -0.095048 -1.092834 4.347468 7.171902 5.001171 0.000000 0.000000 0.000000 5.604553 0.218310 -2.986215 -2.304275 1.109168 0.185779 -3.915027 5.143551 5.281296 8.106781 -3.571058 -15.517981 0.000000 0.000000 0.000000 -25.719502 -4.026071 -1.219213 -47.472481 -2.292874 -4.470094 -2.176882 -23.025816 1.191063 0.000000 0.000000 0.000000 22.740442 -1.862025 -2.288223 55.002670 -0.661733 -5.883470 7.067368 26.474864 2.632311 0.000000 0.000000 0.000000 
0.000289 0.944235 0.006132 -1.757177 -5.365645 1.281685 0.766745 0.370017 4.143970 -2.748293 0.399470 -6.134823 -1.035679 -0.475330 4.176537 0.000000 0.000000 0.000000 0.581087 -0.101763 0.794533 0.578691 -0.094092 -1.125445 4.330300 7.333318 4.728418 0.000000 0.000000 0.000000 5.436408 0.222739 -3.056586 -2.345140 1.126562 0.038733 -3.904186 5.027040 5.350655 8.199972 -3.644661 -15.511756 0.000000 0.000000 0.000000 -25.563694 -3.782579 -1.302514 -47.504851 -2.096325 -4.570682 -2.308582 -23.352085 1.240379 0.000000 0.000000 0.000000 22.593272 -2.137149 -2.471436 55.119853 -0.813015 -5.959059 7.214869 26.512809 2.664800 0.000000 0.000000 0.000000 
0.000220 0.944040 0.007524 -1.835832 -5.481213 1.289947 0.779237 0.382752 4.279853 -2.705254 0.397418 -6.142501 -0.881876 -0.234838 4.027439 0.000000 0.000000 0.000000 0.575402 -0.110289 0.881467 0.625988 -0.106769 -1.386238 4.249903 7.093076 4.785669 0.000000 0.000000 0.000000 5.266855 0.239587 -3.269953 -2.428006 1.163068 -0.161244 -3.734162 4.854441 5.534120 8.044750 -3.588549 -15.462571 0.000000 0.000000 0.000000 -25.453400 -3.328386 -1.456517 -47.666751 -2.053347 -4.652596 -2.329348 -23.622166 1.274116 0.000000 0.000000 0.000000 22.280876 -2.263884 -2.595084 55.329335 -1.163198 -6.131825 7.174576 26.647420 2.658136 0.000000 0.000000 0.000000 
0.000137 0.943654 0.008857 -1.970595 -5.609130 1.341011 0.863309 0.394868 4.443471 -2.633536 0.392173 -6.071973 -0.838017 -0.293782 3.667538 0.000000 0.000000 0.000000 0.647327 -0.117065 0.915865 0.584527 -0.109573 -1.573373 4.231657 7.163929 4.618896 0.000000 0.000000 0.000000 5.123068 0.268559 -3.622190 -2.476704 1.186586 -0.146357 -3.662686 4.772877 5.600610 8.093868 -3.663982 -15.306075 0.000000 0.000000 0.000000 -25.228069 -2.977480 -1.581823 -47.880229 -1.964921 -4.735914 -2.602697 -23.907602 1.354802 0.000000 0.000000 0.000000 22.013439 -2.386849 -2.686754 55.556227 -1.543014 -6.319033 7.205285 26.858506 2.681486 0.000000 0.000000 0.000000 
0.000124 0.943383 0.010063 -2.084677 -5.738802 1.311908 0.929963 0.410347 4.633108 -2.709165 0.399155 -6.131698 -0.739855 -0.179322 3.468903 0.000000 0.000000 0.000000 0.794047 -0.151772 1.194723 0.560197 -0.115473 -1.808346 4.218047 7.099166 4.647791 0.000000 0.000000 0.000000 5.041724 0.288389 -3.848138 -2.541069 1.214833 -0.287727 -3.520292 4.736197 5.746463 8.065627 -3.635333 -15.473686 0.000000 0.000000 0.000000 -24.932363 -2.694100 -1.662959 -48.061726 -1.931054 -4.800988 -2.871747 -24.296016 1.442367 0.000000 0.000000 0.000000 21.787939 -2.670334 -2.864284 55.777318 -1.791347 -6.458022 7.139611 26.731056 2.646972 0.000000 0.000000 0.000000 
0.000330 0.943064 0.011046 -2.179009 -5.745306 1.231449 0.952788 0.431869 4.874153 -2.675134 0.397304 -6.159787 -0.824703 -0.285120 3.633479 0.000000 0.000000 0.000000 0.982669 -0.166480 1.255689 0.502360 -0.106784 -1.684978 4.093061 6.823958 4.622226 0.000000 0.000000 0.000000 5.034491 0.296947 -3.926891 -2.577881 1.235214 -0.154942 -3.510762 4.557958 5.579768 8.181716 -3.686751 -15.666407 0.000000 0.000000 0.000000 -24.740066 -2.486369 -1.713751 -48.117660 -2.161311 -4.724246 -3.156020 -24.535090 1.523748 0.000000 0.000000 0.000000 21.612228 -2.747551 -2.944422 56.028401 -1.978606 -6.545251 6.800351 26.689388 2.554622 0.000000 0.000000 0.000000 
